<?xml version="1.0" encoding="UTF-8"?>
<svg id="Layer_2" data-name="Layer 2" xmlns="http://www.w3.org/2000/svg" xmlns:xlink="http://www.w3.org/1999/xlink" viewBox="0 0 974.35 264.6">
  <defs>
    <style>
      .cls-1 {
        fill: url(#linear-gradient-5);
      }

      .cls-2 {
        fill: url(#linear-gradient-4);
      }

      .cls-3 {
        fill: url(#linear-gradient-3);
      }

      .cls-4 {
        fill: url(#linear-gradient-2);
      }

      .cls-5 {
        fill: url(#linear-gradient);
      }

      .cls-6 {
        fill: #ea5027;
      }
    </style>
    <linearGradient id="linear-gradient" x1="161.54" y1="82.99" x2="346.43" y2="155.88" gradientUnits="userSpaceOnUse">
      <stop offset="0" stop-color="#fff"/>
      <stop offset="1" stop-color="#bcbec0"/>
    </linearGradient>
    <linearGradient id="linear-gradient-2" x1="174.18" y1="50.95" x2="359.07" y2="123.84" xlink:href="#linear-gradient"/>
    <linearGradient id="linear-gradient-3" x1="186.39" y1="19.96" x2="371.28" y2="92.84" xlink:href="#linear-gradient"/>
    <linearGradient id="linear-gradient-4" x1="195.95" y1="-4.27" x2="380.83" y2="68.62" xlink:href="#linear-gradient"/>
    <linearGradient id="linear-gradient-5" x1="205.64" y1="-28.86" x2="390.53" y2="44.03" xlink:href="#linear-gradient"/>
  </defs>
  <g id="Layer_1-2" data-name="Layer 1">
    <g>
      <g>
        <path class="cls-6" d="M0,262.71V73.12h77.46v124.05h101.84v65.54H0Z"/>
        <path class="cls-6" d="M183.9,73.12h77.46v125.94h60.94v-125.94h77.46v145.04c0,19.14-4.94,31.67-14.83,37.58-9.89,5.91-23.54,8.87-40.96,8.87h-104.55c-8.58,0-16.3-.63-23.16-1.9-6.86-1.26-12.68-3.59-17.47-6.97-4.79-3.38-8.46-8.1-11.04-14.15-2.57-6.05-3.86-13.86-3.86-23.43V73.12Z"/>
        <path class="cls-6" d="M419.94,262.71V73.12h155.74c9.21,0,17.2,1.06,23.97,3.18,6.77,2.12,12.37,5.19,16.79,9.21,4.42,4.02,7.72,8.94,9.89,14.76s3.25,12.44,3.25,19.84v6.77c0,9.3-2.01,17.29-6.03,23.97-4.02,6.68-10.13,12.19-18.35,16.52,9.3,4.42,16.05,10.38,20.25,17.88,4.2,7.5,6.3,16.34,6.3,26.54v5.42c0,7.31-1.04,13.81-3.11,19.5-2.08,5.69-5.28,10.45-9.62,14.29-4.33,3.84-9.91,6.75-16.72,8.73-6.82,1.99-14.96,2.98-24.44,2.98h-157.9ZM497.4,142.45h46.58c3.52,0,6.12-.75,7.79-2.23,1.67-1.49,2.5-3.45,2.5-5.89v-2.71c0-2.44-.84-4.4-2.5-5.89-1.67-1.49-4.27-2.23-7.79-2.23h-46.58v18.96ZM497.4,211.79h46.58c3.52,0,6.12-.75,7.79-2.23,1.67-1.49,2.5-3.45,2.5-5.89v-2.71c0-2.44-.84-4.4-2.5-5.89-1.67-1.49-4.27-2.23-7.79-2.23h-46.58v18.96Z"/>
        <path class="cls-6" d="M643.65,262.71V73.12h77.46v189.59h-77.46Z"/>
        <path class="cls-6" d="M742.78,262.71V73.12h57.15l102.38,83.69v-83.69h72.04v189.59h-57.42l-102.11-82.47v82.47h-72.04Z"/>
      </g>
      <g>
        <path class="cls-5" d="M0,60.26L31.25,0h23.67l31.25,60.26h-28.67l-3.36-7.58h-24.92l-3.92,7.58H0ZM36.85,38.05h10.8l-4.99-11.19-5.81,11.19Z"/>
        <path class="cls-4" d="M93.92,60.26V0h48.64c5.42,0,9.75.95,12.98,2.86,3.23,1.91,4.84,5.75,4.84,11.51v12.22c0,4.48-.99,7.76-2.97,9.84-1.98,2.08-4.71,3.44-8.18,4.07l16.57,19.76h-29.4l-13.3-17.22h-4.56v17.22h-24.62ZM118.54,24.97h14.72c.95,0,1.67-.24,2.17-.71.5-.47.75-1.1.75-1.87v-.86c0-.78-.25-1.4-.75-1.87-.5-.47-1.23-.71-2.17-.71h-14.72v6.03Z"/>
        <path class="cls-3" d="M189.65,60.26V20.83h-20.49V0h65.6v20.83h-20.49v39.43h-24.62Z"/>
        <path class="cls-2" d="M244.19,0h24.62v40.03h19.37V0h24.62v46.1c0,6.08-1.57,10.06-4.71,11.94-3.14,1.88-7.48,2.82-13.02,2.82h-33.23c-2.73,0-5.18-.2-7.36-.6-2.18-.4-4.03-1.14-5.55-2.22-1.52-1.08-2.69-2.57-3.51-4.5s-1.23-4.4-1.23-7.45V0Z"/>
        <path class="cls-1" d="M327.82,60.26V0h48.64c5.42,0,9.75.95,12.98,2.86,3.23,1.91,4.84,5.75,4.84,11.51v12.22c0,4.48-.99,7.76-2.97,9.84-1.98,2.08-4.71,3.44-8.18,4.07l16.57,19.76h-29.4l-13.3-17.22h-4.56v17.22h-24.62ZM352.44,24.97h14.72c.95,0,1.67-.24,2.17-.71.5-.47.75-1.1.75-1.87v-.86c0-.78-.25-1.4-.75-1.87-.5-.47-1.23-.71-2.17-.71h-14.72v6.03Z"/>
      </g>
    </g>
  </g>
</svg>