<?xml version="1.0" encoding="UTF-8"?>
<svg id="Layer_2" data-name="Layer 2" xmlns="http://www.w3.org/2000/svg" viewBox="0 0 104 30">
  <defs>
    <style>
      .cls-1 {
        fill: #fff;
      }
    </style>
  </defs>
  <g id="Layer_1-2" data-name="Layer 1">
    <g id="Layer_2-2" data-name="Layer 2">
      <g id="uuid-3171416d-a5de-4550-af24-9b142942e7c6" data-name="Layer 1-2">
        <path class="cls-1" d="M59.48,23.61c.07-.1.16-.18.26-.23.1-.05.21-.08.33-.08.06,0,.11,0,.17.01.06,0,.12.02.18.04.06.02.11.03.17.06.05.02.1.04.14.07.02,0,.03.02.05.03.02.01.03.03.03.06l.13.35h.11v-.65c-.06-.02-.12-.04-.19-.06-.07-.02-.15-.03-.23-.05s-.16-.03-.23-.04c-.07,0-.14-.01-.22-.02-.36,0-.7.14-.94.41-.12.14-.22.29-.28.47-.07.19-.11.39-.1.6,0,.21.03.41.09.61.06.17.15.32.26.46.12.13.26.23.42.29.17.07.36.1.54.1.1,0,.2-.01.29-.04.09-.03.18-.06.27-.11.08-.04.16-.09.24-.14.07-.05.13-.09.19-.15v-.17h-.04s-.09.08-.14.12c-.06.04-.11.08-.18.12-.07.04-.15.07-.23.09-.1.02-.19.03-.29.03-.33,0-.58-.11-.76-.32-.18-.21-.27-.53-.27-.96,0-.18.02-.36.06-.54.03-.14.09-.27.17-.38"/>
        <path class="cls-1" d="M63.88,25.8s-.04.04-.07.05l-.25.05v.1h2.06v-.8h-.11l-.15.54s0,.02-.01.03c0,.01,0,.03-.01.04,0,.01-.02.02-.02.03-.01,0-.02.01-.04.01h-1.01v-2.39s.01-.06.03-.08c.02-.02.04-.04.07-.04l.26-.05v-.1h-1.07v.1l.25.05s.05.02.07.04c.02.02.03.05.03.08v2.26s0,.06-.03.08"/>
        <path class="cls-1" d="M68.38,25.8s-.04.04-.07.05l-.25.05v.1h1.06v-.09l-.25-.05s-.05-.02-.07-.05c-.02-.02-.03-.05-.03-.08v-2.27s.01-.06.03-.08c.02-.02.04-.04.07-.04l.25-.05v-.1h-1.06v.1l.25.05s.05.02.07.04c.02.02.03.05.03.08v2.27s0,.06-.03.08"/>
        <path class="cls-1" d="M73.57,25.12l-1.32-1.94h-.67v.1l.27.06s.05.02.07.04c.02.02.03.05.03.08v2.25s0,.06-.03.08c-.02.02-.04.04-.07.04l-.25.07v.1h.87v-.1l-.25-.07s-.05-.02-.07-.04c-.02-.02-.03-.05-.03-.08v-2.11l.21.31,1.43,2.1h.11l.06-.49v-2.06s.01-.06.03-.08c.02-.02.04-.04.07-.04l.26-.07v-.1h-.87v.1l.25.07s.05.02.07.04c.02.02.03.05.03.08v1.93l-.19-.28Z"/>
        <path class="cls-1" d="M77.05,25.8s-.04.04-.07.05l-.25.05v.1h1.06v-.09l-.25-.05s-.05-.02-.07-.05c-.02-.02-.03-.05-.03-.08v-2.27s0-.06.03-.08c.02-.02.04-.04.07-.04l.25-.05v-.1h-1.06v.1l.25.05s.05.02.07.04c.02.02.03.05.03.08v2.27s0,.06-.03.08"/>
        <path class="cls-1" d="M80.78,23.61c.07-.1.16-.18.26-.23.1-.05.21-.08.33-.08.06,0,.11,0,.17.01.06,0,.12.02.18.04.06.02.11.04.17.06.05.02.1.04.14.07.02.01.03.02.05.03.02.01.03.04.03.06l.13.35h.11v-.65c-.06-.02-.12-.04-.19-.06-.07-.02-.15-.03-.22-.05s-.16-.03-.24-.04c-.07,0-.14-.01-.22-.02-.36,0-.7.14-.94.41-.12.14-.22.29-.28.47-.07.19-.1.39-.1.6,0,.21.03.41.09.61.06.17.15.33.27.46.12.13.26.23.42.29.17.07.36.1.54.1.1,0,.2-.01.29-.04.09-.03.18-.06.27-.11.08-.04.16-.09.23-.14.07-.04.13-.09.19-.15v-.17h-.04s-.09.08-.14.12c-.06.04-.12.08-.18.12-.07.04-.15.07-.23.09-.1.02-.19.03-.29.03-.33,0-.58-.11-.76-.32s-.27-.53-.27-.96c0-.18.02-.36.06-.54.03-.14.09-.27.17-.38"/>
        <rect class="cls-1" x="34.77" y="20.88" width="68.98" height=".32"/>
        <rect class="cls-1" x="34.77" y="21.6" width="68.98" height=".16"/>
        <rect class="cls-1" x="34.77" y="27.97" width="68.98" height=".32"/>
        <rect class="cls-1" x="34.77" y="27.41" width="68.98" height=".16"/>
        <path class="cls-1" d="M45.76,16.57c1.08-1.22,1.62-2.73,1.62-4.55,0-1.36-.3-2.55-.91-3.58-.6-1.03-1.4-1.77-2.4-2.21-.99-.44-2.45-.66-4.37-.66h-5.2v.36h.49c.48,0,.84.14,1.08.42.18.21.27.72.27,1.53v8.42c0,.74-.07,1.21-.21,1.43-.23.35-.61.52-1.14.52h-.49v.36h5.71c2.48,0,4.33-.68,5.54-2.03M38.16,17.66V6.59c.72-.19,1.36-.29,1.92-.29,1.51,0,2.74.52,3.71,1.56.96,1.04,1.44,2.46,1.44,4.27,0,1.78-.48,3.19-1.44,4.24-.96,1.04-2.17,1.57-3.63,1.57-.54,0-1.2-.09-2-.27"/>
        <path class="cls-1" d="M68.66,6.63c.69-.44,1.45-.66,2.31-.66,1,0,1.87.29,2.59.87.72.58,1.28,1.54,1.67,2.86h.29l-.29-4.43h-.33c-.06.31-.18.56-.34.73-.12.11-.28.18-.45.17-.12,0-.3-.07-.56-.21-.9-.46-1.81-.7-2.74-.7-1.18,0-2.28.3-3.28.9s-1.79,1.44-2.36,2.53c-.57,1.09-.86,2.28-.86,3.58,0,1.62.43,3.03,1.3,4.21,1.16,1.61,2.8,2.41,4.92,2.41,1.18,0,2.19-.27,3.04-.81.01,0,.02-.02.04-.03.23-.12.4-.18.5-.18.17,0,.33.06.45.17.16.17.28.42.34.73h.33l.29-4.43h-.29c-.39,1.32-.94,2.28-1.67,2.86-.51.42-1.11.69-1.76.8-.19.02-.38.03-.57.03-.95,0-1.8-.23-2.54-.7-.75-.46-1.31-1.13-1.67-1.99s-.55-1.89-.55-3.06c0-1.43.19-2.63.58-3.59.39-.96.93-1.66,1.61-2.1"/>
        <path class="cls-1" d="M89.49,6.35c.18.21.27.72.27,1.53v5.28c0,1.38-.12,2.36-.36,2.94s-.69,1.06-1.35,1.43c-.66.37-1.41.56-2.25.56-.65,0-1.2-.12-1.65-.35s-.8-.54-1.03-.9-.4-.87-.49-1.53c-.08-.58-.13-1.16-.13-1.74v-5.69c0-.73.08-1.21.23-1.44.23-.34.6-.51,1.13-.51h.49v-.36h-5.51v.36h.47c.49,0,.84.12,1.05.37s.32.77.32,1.58v5.09c0,1.57.1,2.64.31,3.22.28.81.82,1.51,1.53,1.99.72.49,1.78.74,3.18.74,1.28,0,2.29-.26,3.04-.78.74-.51,1.24-1.14,1.5-1.86s.38-1.73.38-3.04v-5.29c0-.72.07-1.18.2-1.38.27-.43.65-.64,1.16-.64h.49v-.36h-4.53v.36h.49c.48,0,.84.14,1.08.42"/>
        <path class="cls-1" d="M96.93,11.42c.46.37,1.24.87,2.33,1.5s1.76,1.03,2,1.22c.36.28.64.59.81.91s.26.65.26.97c0,.57-.23,1.07-.69,1.5-.46.43-1.08.64-1.86.64-.68,0-1.31-.16-1.87-.47-.57-.31-.99-.7-1.27-1.16s-.49-1.16-.66-2.1h-.35v4.47h.35c.04-.3.11-.5.2-.6.1-.1.23-.15.37-.15.16,0,.55.1,1.16.31.61.2,1.02.32,1.21.35.35.06.7.09,1.05.09,1.18,0,2.14-.36,2.89-1.07.75-.72,1.13-1.57,1.12-2.55,0-.51-.12-1.02-.35-1.48-.24-.48-.58-.9-1-1.24-.44-.35-1.25-.85-2.44-1.5-1.47-.8-2.4-1.44-2.79-1.92-.27-.33-.4-.69-.4-1.09,0-.52.21-.98.64-1.39s.97-.61,1.62-.61c.58,0,1.13.15,1.67.45.54.3.95.71,1.25,1.23.29.51.5,1.2.61,2.06h.35v-4.51h-.35c-.07.31-.15.51-.25.61-.1.1-.23.15-.39.15-.15,0-.39-.08-.74-.25-.76-.34-1.48-.51-2.16-.51-1.09,0-1.98.34-2.68,1.02-.7.68-1.05,1.49-1.05,2.42,0,.52.12,1.02.36,1.48.24.45.59.86,1.05,1.23"/>
        <path class="cls-1" d="M56.8,3.51c.49-.35.79-.58.9-.69.14-.14.21-.3.21-.47,0-.17-.07-.34-.19-.46-.13-.13-.27-.19-.43-.19s-.33.11-.52.3c-.12.13-.33.4-.62.83l-1.04,1.54.19.19,1.51-1.06Z"/>
        <path class="cls-1" d="M61.1,15.34h-.38c-.41.8-.8,1.4-1.19,1.8-.31.3-.62.5-.95.61-.32.1-.85.15-1.57.15h-2.17c-.35,0-.58-.04-.71-.11-.12-.07-.21-.17-.27-.3-.05-.12-.08-.47-.08-1.05v-4.01h2.81c.54,0,.93.07,1.19.19s.44.3.55.53c.09.18.18.59.27,1.22h.34v-4.53h-.34c-.04.74-.22,1.27-.55,1.56-.24.22-.73.34-1.46.34h-2.81v-3.83c0-.58.03-.93.08-1.06.05-.13.15-.23.27-.3.13-.07.36-.11.71-.11h2.17c.72,0,1.25.05,1.57.16s.64.31.95.6c.39.4.79,1,1.19,1.8h.38l-1.11-3.26h-9.84v.36h.45c.3,0,.59.07.85.21.19.1.34.26.42.47.07.2.11.62.11,1.26v8.29c0,.64-.04,1.06-.11,1.26-.07.2-.22.37-.41.47-.26.14-.56.21-.85.21h-.45v.36h9.84l1.11-3.26Z"/>
        <path class="cls-1" d="M25.89,25.3c2.5-2.8,3.74-6.28,3.75-10.44,0-3.11-.7-5.86-2.1-8.23-1.4-2.37-3.25-4.07-5.54-5.1C19.71.51,16.37,0,11.99,0H0v.82h1.1c1.11,0,1.96.33,2.53.99.39.46.59,1.63.59,3.52v19.37c0,1.69-.16,2.78-.49,3.27-.52.8-1.4,1.21-2.64,1.21H0v.82h13.15c5.71,0,9.96-1.57,12.74-4.7M21.36,5.28c2.21,2.38,3.31,5.65,3.32,9.81,0,4.1-1.11,7.36-3.32,9.77-1.73,1.89-3.82,3.04-6.26,3.44-.54-1.4-1.21-2.96-1.65-3.41,0,0-.73-1.26-2.18-1.52.28-.37.61-1.06.77-1.2.18-.16.69-.83.85-1.32s.58-1.39,1.23-1.39c0,0,.39-.1,1.84.28,0,0,1.84.21,2.08-.88,0,0,.09-.32-.08-.72,0,0-.24-.48.33-.83,0,0,.26-.93-.69-.77l-.05-.07s.89-.38.85-.8c-.13-.22-.22-.46-.26-.71,0,0-.05-.28.46-.51,0,0,.73-.5.45-.99,0,0-.09-.32-.75-.67,0,0-.4-.31-.65-.68,0,0-.35-.43-.56-.69-.05-.09-.08-.18-.09-.28,0,0,.45-.1.27-.49,0,0-.19.33-.32.17,0,0,.15-.64.43-.74,0,0,.28-.26-.05-.38,0,0-.62-1.83-.74-2.06,0,0-.77-1.76-1.74-2.19,0,0,1.24-.84.23-1.54,0,0,.32.82-.23.75,0,0,.29-1.45-1.46-2.28-.68-.33-1.2-.5-1.61-.6.36-.03.71-.04,1.05-.04h.07c.14.05.27.11.39.18-.09-.07-.19-.13-.3-.18,3.39.04,6.18,1.23,8.35,3.57"/>
      </g>
    </g>
  </g>
</svg>