<?xml version="1.0" encoding="UTF-8"?>
<svg id="Layer_2" data-name="Layer 2" xmlns="http://www.w3.org/2000/svg" viewBox="0 0 136.93 13.75">
  <defs>
    <style>
      .cls-1 {
        fill-rule: evenodd;
      }

      .cls-1, .cls-2 {
        fill: #fff;
      }
    </style>
  </defs>
  <g id="Layer_1-2" data-name="Layer 1">
    <g>
      <path class="cls-2" d="M18.63,13.75H0L3.88,0h18.63l-3.88,13.75ZM1.29,12.77h16.62L21.24.96H4.61L1.29,12.77Z"/>
      <path class="cls-2" d="M33.3,13.75h-12.3L24.62.01h12.3l-3.62,13.74ZM22.26,12.77h10.3l3.12-11.81h-10.3l-3.12,11.81Z"/>
      <path class="cls-2" d="M47.82,13.75h-12.3L39.14.01h12.3l-3.62,13.74ZM36.77,12.77h10.3l3.12-11.81h-10.3l-3.12,11.81Z"/>
      <polygon class="cls-2" points="50.49 12.95 55.47 12.95 56.61 8.3 56.63 8.3 58.34 12.95 63.78 12.95 61.39 7.54 67.18 1.38 60.9 1.38 57.3 5.97 57.26 5.97 58.51 1.38 53.47 1.38 50.49 12.95"/>
      <polygon class="cls-2" points="63.19 9.45 69.18 9.45 70.09 6.21 64.1 6.21 63.19 9.45"/>
      <path class="cls-1" d="M76.35,4.61h2.15c.68,0,1.06.26,1.06.82,0,.74-.48,1.58-1.62,1.58h-2.21l.62-2.4ZM69.18,12.95h4.93l1.04-4.02,2.4,4.02h5.79l-3.35-4.75h.88c2.09,0,3.71-1.32,3.71-4.24,0-1.63-.47-2.57-2.67-2.57h-9.57l-3.15,11.56Z"/>
      <path class="cls-1" d="M82.64,12.95h5.54l1-1.68h4.08v1.68h4.98V1.38h-8.66l-6.95,11.56ZM93.26,8.47h-2.6l2.56-4.17h.04v4.17Z"/>
      <path class="cls-1" d="M114.02,1.38h-4.97l-2.15,7.65c-.22.79-.59,1.31-1.51,1.31-.62,0-1.04-.25-1.04-.84,0-.26.15-.88.27-1.31l1.92-6.81h-5.07l-1.99,7.11c-.36,1.3-.41,1.63-.41,2.05,0,2.57,3.31,2.73,5.22,2.73,4.14,0,6.52-.47,7.33-3.39l2.4-8.51Z"/>
      <polygon class="cls-1" points="114.66 12.95 119.69 12.95 121.7 5.21 124.96 5.21 126 1.38 114.44 1.38 113.4 5.21 116.66 5.21 114.66 12.95"/>
      <path class="cls-1" d="M136.93,7.33V1.38h-8.67l-6.94,11.56h5.54l1-1.68h4.08v1.68h4.98v-5.61M131.95,8.47h-2.6l2.56-4.17h.04v4.17Z"/>
    </g>
  </g>
</svg>