<?xml version="1.0" encoding="UTF-8"?>
<svg id="Layer_2" data-name="Layer 2" xmlns="http://www.w3.org/2000/svg" viewBox="0 0 140 30">
  <defs>
    <style>
      .cls-1 {
        fill: #fff;
      }
    </style>
  </defs>
  <g id="Layer_1-2" data-name="Layer 1">
    <g>
      <path class="cls-1" d="M26.77,30c2.74,0,4.96-2.24,4.96-5.01s-2.22-5.01-4.96-5.01-4.96,2.24-4.96,5.01,2.22,5.01,4.96,5.01Z"/>
      <path class="cls-1" d="M9.17,28c2.05,0,3.72-1.68,3.72-3.76s-1.66-3.76-3.72-3.76-3.72,1.68-3.72,3.76,1.66,3.76,3.72,3.76Z"/>
      <path class="cls-1" d="M34.36,0l-8.59,1.22c.67,4.8-2.64,9.23-7.38,9.9-4.74.67-9.13-2.67-9.8-7.46L0,4.88c1.33,9.59,10.11,16.27,19.59,14.93,9.49-1.35,16.1-10.22,14.77-19.81Z"/>
      <path class="cls-1" d="M45.94,21.36l-3.03-4.6v4.6h-3.55V6.25h3.55v8.83l2.76-4.51h4.1l-3.59,5.4,3.74,5.4h-3.97Z"/>
      <path class="cls-1" d="M61.18,10.56v10.8h-3.55v-.99c-.68.82-1.67,1.3-3.03,1.3-2.86,0-5.02-2.46-5.02-5.7s2.16-5.7,5.02-5.7c1.37,0,2.35.47,3.03,1.3v-.99h3.55ZM57.63,15.96c0-1.4-.92-2.36-2.24-2.36s-2.24.95-2.24,2.36.92,2.35,2.24,2.35,2.24-.95,2.24-2.35Z"/>
      <path class="cls-1" d="M73.27,10.56v10.8h-3.55v-1.08c-.6.86-1.64,1.38-2.97,1.38-2.2,0-3.93-1.53-3.93-4.64v-6.46h3.55v6c0,1.17.68,1.71,1.6,1.71,1.09,0,1.75-.67,1.75-1.97v-5.74h3.55Z"/>
      <path class="cls-1" d="M86.92,15.96c0,3.24-2.16,5.7-5.02,5.7-1.37,0-2.35-.47-3.03-1.3v5.31h-3.55v-15.12h3.55v.99c.68-.82,1.67-1.3,3.03-1.3,2.86,0,5.02,2.46,5.02,5.7h0ZM83.36,15.96c0-1.4-.92-2.36-2.24-2.36s-2.24.95-2.24,2.36.92,2.35,2.24,2.35,2.24-.95,2.24-2.35Z"/>
      <path class="cls-1" d="M87.46,18.56l4.96-5.29c.83-.91,1.43-1.6,1.43-2.33s-.47-1.25-1.32-1.25c-.94,0-1.6.63-2.01,1.58l-3.29-1.86c1-2.37,3.08-3.48,5.26-3.48,2.69,0,5.19,1.71,5.19,4.79,0,1.9-1.03,3.33-2.39,4.77l-2.03,2.14h4.68v3.74h-10.47v-2.81h0Z"/>
      <path class="cls-1" d="M111.07,19.05h-1.49v2.31h-3.8v-2.31h-6.56v-3.52l4.46-9.29h4.23l-4.51,9.29h2.37v-2.72h3.8v2.72h1.49v3.52h0Z"/>
      <path class="cls-1" d="M112.02,19.42c0-1.23,1-2.25,2.24-2.25s2.22,1.01,2.22,2.25-1,2.25-2.22,2.25-2.24-.99-2.24-2.25Z"/>
      <path class="cls-1" d="M122.77,18.6c.77,0,1.43-.26,1.95-.76l2.56,1.81c-1.07,1.36-2.69,2.01-4.59,2.01-3.7,0-5.98-2.48-5.98-5.68s2.35-5.72,5.68-5.72,5.51,2.44,5.51,5.68c0,.45-.04.89-.15,1.34h-7.37c.43,1.04,1.37,1.32,2.39,1.32h0ZM124.44,14.8c-.32-1.12-1.15-1.51-2.01-1.51-1.03,0-1.8.52-2.09,1.51h4.1Z"/>
      <path class="cls-1" d="M134.87,18.6c.77,0,1.43-.26,1.94-.76l2.56,1.81c-1.07,1.36-2.69,2.01-4.59,2.01-3.7,0-5.98-2.48-5.98-5.68s2.35-5.72,5.68-5.72,5.51,2.44,5.51,5.68c0,.45-.04.89-.15,1.34h-7.37c.43,1.04,1.37,1.32,2.39,1.32h0ZM136.54,14.8c-.32-1.12-1.15-1.51-2.01-1.51-1.03,0-1.8.52-2.09,1.51h4.1Z"/>
    </g>
  </g>
</svg>