<?xml version="1.0" encoding="UTF-8"?>
<svg id="Layer_2" xmlns="http://www.w3.org/2000/svg" version="1.1" viewBox="0 0 160 30">
  <!-- Generator: Adobe Illustrator 30.0.0, SVG Export Plug-In . SVG Version: 2.1.1 Build 123)  -->
  <defs>
    <style>
      .st0 {
        fill-rule: evenodd;
      }

      .st0, .st1 {
        fill: #fff;
      }
    </style>
  </defs>
  <g id="Layer_1-2">
    <g>
      <path class="st0" d="M2,.3c5.7,22.3,9.2,6.7,18.9,28.5-2.9-10.9-4.3-17.9-12.7-23,8.7,3.4,11.4,12.9,13.1,21.7C21.6,5.9,10.7,2.8,2,.3Z"/>
      <path class="st0" d="M33.4,4.8c-1.2,13.2-4.2,5.8-12,23.3,2.4-8.7,2.9-16.7,9.6-20.8-7,2.7-8.5,13.1-9.8,20.2-.2-17.1,1.7-19.9,12.2-22.7h0Z"/>
      <path class="st1" d="M23.1,6.6c1.6-.5,2.3-2.4,1.8-4.2S22.5-.4,21,.2s-2.3,2.4-1.8,4.2c.6,1.8,2.3,2.8,3.9,2.2Z"/>
      <path class="st0" d="M29.4,15.8c5.5,2.7,9,6.3,8.4,9.3-.8,4.5-9.8,6.2-20.2,3.8C7.2,26.5-.7,21,0,16.5c.4-2.2,2.7-3.7,6.2-4.4,0,0,0,0,0,.1-2.4.6-3.9,1.7-4.2,3.2-.6,3.6,6.5,8.3,15.9,10.4,9.4,2.1,17.5,1,18.1-2.6.4-2.3-2.4-5-6.8-7.3h0Z"/>
      <path class="st0" d="M65,22.6c-1.1,0-2-.5-2.8-1.1-.7-.7-1.1-1.7-1.1-2.8v-2.6c0-1.1.5-2.1,1.1-2.8.7-.7,1.7-1.1,2.8-1.1h2.6c1.1,0,2.1.4,2.8,1.1.7.7,1.1,1.7,1.1,2.8v2h-6.5l1.3-1.3h2.6v-.7c0-.4-.1-2-.4-2.2s-.6-.4-.9-.4h-2.6c-.3,0-.7.1-.9.4-.2.2-.4,1.9-.4,2.2v2.6c0,.4.1,2,.4,2.2.2.2.6.4.9.4h6.5l-1.3,1.3h-5.2s0,0,0,0ZM72.8,8.2l2.6,1.3v13.1h-2.6s0-14.4,0-14.4ZM76.7,12.1l2.6,1.3v9.2h-2.6v-10.5ZM80.7,17.3v-1.3c0-1.1.4-2.1,1.1-2.8.7-.7,1.7-1.1,2.8-1.1h2.6c1.1,0,2.1.4,2.8,1.1.7.7,1.1,1.7,1.1,2.8v2.6c0,1.1-.4,2.1-1.1,2.8-.7.7-1.7,1.1-2.8,1.1h-2.6c-1.1,0-2.1-.5-2.8-1.1-.7-.7-1.1-1.7-1.1-2.8v-1.3ZM88.4,17.3v-1.3c0-1,0-2.6-1.3-2.6h-2.6c-1.3,0-1.3,1.6-1.3,2.6v2.6c0,1,0,2.6,1.3,2.6h2.6c1.3,0,1.3-1.6,1.3-2.6v-1.3ZM92.4,22.6v-6.6c0-1.1.5-2.1,1.2-2.8.8-.7,1.8-1.1,3-1.1h.8c1.9,0,4.1,1.1,4,2.6v1.3h-2.6v-1.8c0-.4-.5-.8-1.4-.8h-.8c-.9,0-1.4.4-1.4,1v8.2h-2.8,0ZM105.4,16.2v-4.1c0-1.1.4-2.1,1.2-2.8.7-.7,1.7-1.1,2.8-1.1h2.8c1.1,0,2.1.5,2.8,1.2.4.4.7.9.9,1.4h-2.4v-.4c0-.4-.5-.8-1.3-.8h-2.8c-.8,0-1.3.4-1.3.9v9.9c0,.5.5,1,1.3,1h2.8c.8,0,1.3-.4,1.3-.9v-.5h2.4c-.2.5-.5,1-.9,1.4-.7.7-1.7,1.1-2.8,1.1h-2.8c-1.1,0-2.1-.4-2.8-1.1-.7-.7-1.2-1.7-1.2-2.8v-2.5h0ZM117.1,8.2l2.6,1.3v13.1h-2.6s0-14.4,0-14.4ZM121,12.1l2.6,1.3v9.2h-2.6v-10.5ZM135.3,22.6v-6.6c0-1.1-.5-2.1-1.2-2.8-.8-.7-1.8-1.1-2.9-1.1h-3.4v1.3c0,0,.2,0,.3,0h3.2c.9,0,1.4.4,1.4,1v8.2h2.8ZM127.7,12.1v10.5h-2.8v-10.5s2.8,0,2.8,0ZM136.6,12.1l2.6,1.3v9.2h-2.6v-10.5ZM144.7,22.5c-1.2,0-2.2-.4-3-1.1s-1.2-1.7-1.2-2.8v-2.6c0-1.1.5-2.1,1.2-2.8.8-.7,1.8-1.1,3-1.1h4.9l-1.3,1.3h-3.6c-.9,0-1.4.4-1.4,1v5.6c0,.7.6,1.3,1.4,1.3h4.9l-1.3,1.4h-3.6Z"/>
      <path class="st0" d="M152.2,15.8c0-1,0-2.3,1.3-2.3h5.2l1.3-1.3h-6.5c-1.1,0-2.7.4-3.4,1.1-.7.7-.5,1.8-.5,2.8,0,2.3,1.5,2,3.7,2h2.2c1.1,0,2,0,2,1.1s0,2.2-1.3,2.2h-5.2l-1.3,1.3h6.5c1.1,0,2.6-.3,3.3-1,.7-.7.6-1.8.7-2.9,0-2.1-.7-2.1-3.1-2.1h-3c-.9,0-1.7,0-1.7-.9h0ZM44.2,11.9v10.7h2.6v-11.8c0-.4.1-.7.4-.9.5-.5,2.6-.6,3.1,0,.2.2.4.6.4.9v11.8h2.6v-10.5c0-.4.1-.7.4-.9.5-.5,2.6-.6,3.1,0,.2.2.4.6.4.9v10.5h2.6v-9.2h0c0,0,0-.2,0-.2,0-1-.5-1.9-1.1-2.6-1.3-1.3-4.4-1.6-6-.6-.1-.2-.3-.4-.5-.7-1.5-1.6-5.3-1.6-6.8,0-.7.7-1.1,1.6-1.1,2.6h0Z"/>
      <path class="st1" d="M137.5,8.2c-.4,0-.6,0-.9-.3s-.4-.4-.6-.7c-.1-.3-.2-.7-.2-1s0-.7.2-1c.1-.3.3-.6.6-.7.2-.2.6-.3.9-.3s.6,0,.9.3.4.4.6.7c.1.3.2.7.2,1s0,.7-.2,1c-.1.3-.3.6-.6.7s-.6.3-.9.3h0ZM135.8,8.1V3h.5v2.2h0v2.9h-.5,0ZM137.5,7.7c.3,0,.5,0,.7-.2.2-.1.3-.3.4-.6,0-.2.1-.5.1-.8s0-.6-.1-.8c0-.2-.2-.4-.4-.6-.2-.1-.4-.2-.7-.2s-.5,0-.7.2c-.2.1-.3.3-.4.6,0,.2-.1.5-.1.8s0,.6.1.8c0,.2.2.4.4.6s.4.2.7.2h0Z"/>
      <path class="st1" d="M142,8.2c-.4,0-.7,0-1-.2s-.5-.4-.6-.7c-.1-.3-.2-.7-.2-1.1s0-.8.2-1.1c.1-.3.4-.5.6-.7s.6-.2,1-.2.7,0,1,.3c.3.2.5.4.6.8.1.3.2.7.2,1.2h-.5v-.2c0-.5-.1-.9-.3-1.1-.2-.2-.5-.4-.9-.4s-.7.1-.9.4c-.2.3-.3.7-.3,1.2s.1.9.3,1.1.5.4.9.4.5,0,.7-.2c.2-.1.4-.3.5-.6l.5.2c-.1.3-.4.6-.7.8-.3.2-.6.3-1,.3h0ZM140.5,6.3v-.4h2.9v.4h-2.9Z"/>
      <path class="st1" d="M145.9,8.2c-.3,0-.5,0-.7-.2-.2,0-.3-.2-.4-.4-.1-.2-.1-.4-.1-.6s0-.4.1-.5.2-.3.3-.4c.1,0,.3-.2.5-.2.2,0,.4,0,.6-.1.2,0,.5,0,.7,0,.2,0,.4,0,.6,0h-.2c0-.3,0-.5-.2-.7-.1-.2-.4-.3-.8-.3s-.5,0-.7.2c-.2.1-.3.3-.4.6l-.5-.2c0-.3.3-.6.5-.8.3-.2.6-.3,1-.3s.6,0,.9.2c.2.1.4.3.5.6,0,.1,0,.2,0,.4,0,.1,0,.3,0,.4v2.4h-.5v-1h.1c-.1.4-.3.6-.6.8-.3.2-.6.3-1,.3h0ZM145.9,7.7c.2,0,.5,0,.6-.1s.3-.2.4-.4.2-.3.2-.5c0-.1,0-.3,0-.4v-.3h.2c-.2.1-.4.2-.6.2-.2,0-.4,0-.6,0-.2,0-.4,0-.5.1-.1,0-.2,0-.3.1-.1,0-.2.1-.2.2,0,0-.1.2-.1.3s0,.2,0,.3c0,0,.1.2.3.3.1,0,.3,0,.5,0h0Z"/>
      <path class="st1" d="M150.5,8.2c-.2,0-.4,0-.6-.1-.2,0-.3-.2-.4-.3-.1-.1-.2-.3-.3-.4,0-.2-.1-.3-.2-.5s0-.3,0-.5v-2.1h.5v2c0,.2,0,.4,0,.6,0,.2.1.3.2.5,0,.1.2.2.3.3s.3.1.5.1.4,0,.5,0c.1,0,.3-.2.4-.3.1-.1.2-.3.2-.4s0-.4,0-.6h.4c0,.5,0,.8-.2,1.1s-.3.5-.6.6c-.2.1-.5.2-.8.2h0ZM151.8,8.1v-.9h0v-2.9h.5v3.8h-.5Z"/>
      <path class="st1" d="M155.7,8.1c-.2,0-.4,0-.6,0-.2,0-.4,0-.6-.1-.2,0-.3-.2-.4-.4,0-.1-.1-.3-.1-.4V3.2h.5v3.9c0,.1,0,.2,0,.3,0,.2.2.2.4.3.2,0,.4,0,.7,0v.5h0ZM153.2,4.7v-.4h2.5v.4h-2.5Z"/>
      <path class="st1" d="M157.3,9.8l.7-2v.6l-1.7-4.1h.6l1.4,3.5h-.2l1.3-3.5h.5l-2.1,5.6h-.5Z"/>
    </g>
  </g>
</svg>