<?xml version="1.0" encoding="UTF-8"?>
<svg id="Layer_2" data-name="Layer 2" xmlns="http://www.w3.org/2000/svg" viewBox="0 0 48 30">
  <defs>
    <style>
      .cls-1 {
        fill: #fff;
      }
    </style>
  </defs>
  <g id="Layer_1-2" data-name="Layer 1">
    <g>
      <path class="cls-1" d="M28.53,21.22c.8,1.03,1.2,2.24,1.2,3.63s-.4,2.64-1.2,3.64c-.8,1.01-2.02,1.51-3.66,1.51s-2.86-.5-3.66-1.51c-.8-1.01-1.2-2.22-1.2-3.64s.4-2.6,1.2-3.63,2.02-1.54,3.66-1.54,2.86.51,3.66,1.54ZM24.86,21.82c-.73,0-1.28.26-1.68.78-.4.53-.59,1.27-.59,2.25s.19,1.72.59,2.25c.4.53.95.79,1.68.79s1.28-.27,1.68-.79c.38-.53.59-1.27.59-2.25s-.19-1.72-.59-2.25c-.38-.53-.95-.78-1.68-.78Z"/>
      <path class="cls-1" d="M26.44,6.51h-2.64l-1.97,7.13-2.08-7.13h-2.76l3.49,10.1c.02.07-.02.27-.16.59-.07.17-.13.31-.2.42-.01.02-.02.04-.04.06-.68,1.14-1.78,1.98-3.07,2.33v-2.63h-2.46v2.69c-1.3-.29-2.39-1.09-3.15-2.19-1-1.43-2.13-2.24-3.3-2.76-.92-.4-1.96-.61-3.01-.61-1.96,0-3.75.77-5.09,2.02h0l1.48,1.84s.07-.06.11-.09c.92-.87,2.16-1.39,3.52-1.39s3.31.99,4.29,2.39c.9,1.31,1.99,2.13,3.25,2.69.6.27,1.25.45,1.93.54v5.35c0,.6.14,1.05.42,1.34.43.45,1.24.66,2.41.62l1.18-.05v-1.89c-.08,0-.17,0-.25.01h-.24c-.5,0-.8-.05-.91-.15-.1-.1-.14-.34-.14-.75v-4.56c.56-.11,1.12-.28,1.63-.51,1.06-.46,2.16-1.34,2.88-2.25h0c.1-.12.19-.26.28-.38.02-.04.05-.07.07-.11.3-.49.55-1.12.76-1.64.07-.18.14-.38.23-.59h0c.2-.53.56-1.6.68-1.98h0l2.91-8.48h-.04Z"/>
      <path class="cls-1" d="M37.38,23.27v1.98c0,.62-.08,1.12-.24,1.5-.31.7-.9,1.05-1.74,1.05s-1.1-.24-1.33-.73c-.13-.28-.19-.7-.19-1.25v-3.08c-1.25-.4-2.07-.95-2.55-1.37v4.45c0,1.11.13,1.94.41,2.52.49,1.03,1.44,1.54,2.85,1.54s.91-.06,1.27-.2.74-.37,1.13-.73c.13-.11.24-.24.34-.39s.16-.23.18-.27v1.37h2.41v-6.89c-.73.28-1.56.48-2.52.49h-.01Z"/>
      <path class="cls-1" d="M46.81,19.76h-.12c-.74,0-1.35.2-1.81.6-.29.23-.62.67-1.01,1.32v-1.69h-.42c-.35.46-.98,1.25-1.96,1.94v7.74h2.51v-4.63c0-.77.1-1.34.29-1.72.35-.66,1.02-.99,2.02-.99s.18,0,.3,0,.26.01.42.04v-2.59c-.11,0-.18,0-.22-.01h0Z"/>
      <path class="cls-1" d="M12.11,3.1l-2.32,10.28L7.45,3.1h-3.91v10.66c.49-.07,1.41-.17,2.51-.06V5.2l1.97,8.93c2.13.61,3.09,1.92,3.09,1.92l2.41-10.85v10.99h2.51V3.1h-3.91Z"/>
      <path class="cls-1" d="M41.34,17.39c-.89,1.66-2.61,2.78-4.59,2.78s-3.39-.96-4.32-2.39c-1-1.37-1.95-2.1-3.23-2.67-.92-.4-1.93-.61-3-.61s-1.22.07-1.8.22l-.98,2.97c.82-.53,1.77-.81,2.77-.81,1.87,0,3.29.9,4.42,2.53.9,1.22,1.9,1.97,3.13,2.52.92.4,1.93.64,3,.64,2.82,0,5.28-1.58,6.58-3.92l-1.99-1.25h.01Z"/>
      <path class="cls-1" d="M46.72,8.47l1.28-1.99c-2.15-1.55-5.04-1.91-7.6-.68-.11.05-.22.11-.32.17.14-.43.35-.84.61-1.25,1.1-1.67,2.99-2.49,4.84-2.31l.11-2.38c-2.63-.22-5.3.98-6.88,3.35-.11.17-.22.34-.31.51-.1-.17-.2-.34-.31-.51C36.53,1,33.87-.19,31.24.03l.11,2.38c1.85-.18,3.73.64,4.84,2.31.26.39.47.82.61,1.25-.11-.06-.22-.11-.32-.17-2.56-1.22-5.44-.87-7.6.68l1.28,1.99c1.49-1.11,3.53-1.39,5.32-.53.22.11.42.22.61.35-2.5.84-4.31,2.91-4.95,5.36l2.25.68c.44-1.83,1.83-3.37,3.73-3.88.44-.12.88-.17,1.31-.17s.88.05,1.31.17c1.91.51,3.3,2.05,3.73,3.88l2.25-.68c-.64-2.46-2.44-4.52-4.95-5.36.19-.13.4-.24.61-.35,1.79-.86,3.82-.59,5.32.53h.01Z"/>
      <path class="cls-1" d="M39.91,17.9v-7.39c-.06-.01-.11-.04-.17-.05-.44-.12-.88-.17-1.31-.17-.35,0-.7.04-1.04.11v8.89c.49-.11,1.95-.56,2.52-1.39h0Z"/>
    </g>
  </g>
</svg>