<?xml version="1.0" encoding="UTF-8"?>
<svg id="Layer_2" data-name="Layer 2" xmlns="http://www.w3.org/2000/svg" viewBox="0 0 118.08 16.11">
  <defs>
    <style>
      .cls-1 {
        fill: #fff;
      }

      .cls-2 {
        fill: rgba(255, 255, 255, .5);
      }
    </style>
  </defs>
  <g id="Layer_1-2" data-name="Layer 1">
    <g>
      <path class="cls-1" d="M9.57,8.12c0,2.77-1.52,4.46-3.65,4.46-.72,0-1.35-.22-1.89-.57v4.1H.89V6.41l-.89-.77,4.04-1.42v1.56c.83-.85,1.81-1.4,2.73-1.4,1.59,0,2.8,1.29,2.8,3.74h0ZM6.21,9.02c0-2.11-.45-3.17-1.51-3.17-.24,0-.44.06-.66.16v5.74c.22.16.5.24.77.24.82,0,1.4-1.07,1.4-2.96h0Z"/>
      <path class="cls-1" d="M11.23,12.27v-5.95l-.89-.77,4.04-1.41v8.12h-3.14ZM11.06,2.13c0-1.03.63-1.74,1.74-1.74,1.12,0,1.74.7,1.74,1.74,0,1.05-.63,1.75-1.74,1.75s-1.74-.7-1.74-1.75h0Z"/>
      <path class="cls-1" d="M17.01,12.27V2.6l-.93-.78,4.21-1.43v11.88h-3.28Z"/>
      <path class="cls-1" d="M28.71,10.73c-.67.99-1.73,1.55-3.2,1.55-2.23,0-4.07-1.52-4.07-3.92,0-2.26,1.55-4.13,4.09-4.13,1.49,0,2.52.85,2.52,1.98,0,1.28-1.02,2.41-2.92,3.11.9.87,2.04,1.44,3.11,1.44.16,0,.32-.01.46-.05h.02s0,.01,0,.01ZM23.4,5.68c0,1.28.68,2.58,1.63,3.55.44-.56.62-1.18.62-1.97,0-1.35-.92-2.49-1.6-2.49-.41,0-.65.34-.65.91h0Z"/>
      <path class="cls-1" d="M35.6,11.05c-.58.93-1.62,1.61-3.07,1.61-1.87,0-2.61-1.11-2.61-3.16v-4.49h-1.21v-.02l4.36-3.45v2.83h2.22v.64h-2.22v3.68c0,1.83.42,2.51,1.59,2.51.35,0,.61-.05.93-.17v.02h.02Z"/>
      <path class="cls-1" d="M36.88,12.27v-5.95l-.89-.77,4.04-1.41v8.12h-3.15ZM36.71,2.13c0-1.03.63-1.74,1.74-1.74,1.12,0,1.75.7,1.74,1.74,0,1.05-.63,1.75-1.74,1.75s-1.74-.7-1.74-1.75h0Z"/>
      <path class="cls-1" d="M42.28,12.27V2.6l-.93-.78,4.21-1.43v11.88h-3.28Z"/>
      <path class="cls-1" d="M54.36,10.73c-.67.99-1.73,1.55-3.2,1.55-2.23,0-4.07-1.52-4.07-3.92,0-2.26,1.55-4.13,4.09-4.13,1.49,0,2.52.85,2.52,1.98,0,1.28-1.02,2.41-2.92,3.11.9.87,2.04,1.44,3.11,1.44.16,0,.32-.01.46-.05h.02s0,.01,0,.01ZM49.05,5.68c0,1.28.68,2.58,1.63,3.55.44-.56.62-1.18.62-1.97,0-1.35-.92-2.49-1.6-2.49-.41,0-.65.34-.65.91h0Z"/>
      <path class="cls-1" d="M63.55,4.61l-1.08.78-3.59,7.27h-.42l-3.41-7.27-1.08-.78h5.61l-1.08.78,1.44,3.94,1.69-3.93-1.13-.78h3.03Z"/>
      <path class="cls-1" d="M64.83,12.27v-5.95l-.89-.77,4.04-1.41v8.12h-3.14ZM64.66,2.13c0-1.03.63-1.74,1.75-1.74,1.12,0,1.74.7,1.74,1.74,0,1.05-.63,1.75-1.75,1.75s-1.74-.7-1.74-1.75h0Z"/>
      <g>
        <g>
          <path class="cls-1" d="M86.97,5.92h-.86v1.69h.86c.6,0,.94-.26.94-.85,0-.55-.26-.85-.94-.85Z"/>
          <path class="cls-1" d="M86.85,1.61c-3.45,0-6.25,2.8-6.25,6.25s2.8,6.25,6.25,6.25,6.25-2.8,6.25-6.25-2.8-6.25-6.25-6.25ZM86.97,8.93h-.86v2.26h-1.54v-6.59h2.52c1.27,0,2.39.61,2.39,2.09,0,1.38-.97,2.24-2.51,2.24Z"/>
        </g>
        <path class="cls-1" d="M99.34,1.6c-3.45,0-6.25,2.8-6.25,6.25s2.8,6.25,6.25,6.25,6.25-2.8,6.25-6.25-2.8-6.25-6.25-6.25ZM101.51,11.19h-3.97v-6.59h1.54v5.23h2.43v1.37Z"/>
        <path class="cls-1" d="M111.83,1.61c-3.45,0-6.25,2.8-6.25,6.25s2.8,6.25,6.25,6.25,6.25-2.8,6.25-6.25-2.8-6.25-6.25-6.25ZM111.81,9.93c.9,0,1.5-.48,1.5-1.18v-.03h-1.58v-1.16h3.14v3.62h-1.29l.09-1.8h-.08c-.17.81-.78,1.91-2.39,1.91-1.81,0-2.55-1.32-2.55-3.36h0c0-1.9,1.12-3.46,3.29-3.46,1.46,0,2.46.73,2.98,2.07l-1.38.48c-.31-.75-.77-1.18-1.64-1.18-.97,0-1.67.54-1.67,2.09s.57,1.99,1.57,1.99Z"/>
      </g>
      <path class="cls-2" d="M74.95,0h0c.22,0,.39.18.39.39v14.93c0,.22-.18.39-.39.39h0c-.22,0-.39-.18-.39-.39V.39c0-.22.18-.39.39-.39Z"/>
    </g>
  </g>
</svg>