<?xml version="1.0" encoding="UTF-8"?>
<svg id="Layer_2" data-name="Layer 2" xmlns="http://www.w3.org/2000/svg" viewBox="0 0 192 30">
  <defs>
    <style>
      .cls-1 {
        fill: #fff;
      }
    </style>
  </defs>
  <g id="Layer_1-2" data-name="Layer 1">
    <g id="logotype-placet-group">
      <g>
        <path class="cls-1" d="M21.48,19.55h0l-7.34,2.86-9.64-4.73,1.95-8.66,12.38-4.73h0l5.04-1.87-4.86-2.41L3.01,6.07,0,19.91l13.97,6.87,16-6.16.97-4.64-9.46,3.57Z"/>
        <path class="cls-1" d="M30.93,15.43l1.86-8.57-8.49-4.11-4.77,1.79,9.02,4.38-1.77,8.04"/>
      </g>
      <g>
        <path class="cls-1" d="M42.88,4.2h7.96c4.07,0,5.3,2.77,4.6,6.34-.88,4.29-3.71,6.43-8.05,6.43h-1.86l-1.59,7.86h-5.3l4.24-20.63ZM46.33,13.13h.97c1.33,0,2.21-.8,2.56-2.5.35-1.7-.18-2.5-1.59-2.5h-.97l-.97,5Z"/>
        <path class="cls-1" d="M58.44,4.2h5.13l-4.24,20.71h-5.13l4.24-20.71Z"/>
        <path class="cls-1" d="M69.23,24.91c-.09-.54,0-1.07,0-1.79h-.09c-.88,1.43-2.39,2.14-3.89,2.14-3.09,0-3.98-1.96-3.36-4.64.53-2.86,1.86-4.29,5.3-5l2.12-.54c1.15-.27,1.68-.71,1.86-1.7s-.18-1.43-1.06-1.43c-.97,0-1.5.45-1.86,2.05h-4.51c.88-4.55,4.69-5.27,6.98-5.27,3.62,0,5.92.98,5.13,5l-1.59,7.68c-.35,1.52-.53,2.59-.18,3.39h-4.86v.09ZM70.02,19.2l.44-1.88h-.09c-.35.45-1.06.36-1.86.71-.88.36-1.33.98-1.5,2.05-.18,1.07.18,1.7.88,1.7,1.15,0,1.77-.89,2.12-2.59Z"/>
        <path class="cls-1" d="M85.76,15.36c.27-1.25.27-2.05.18-2.5-.09-.45-.44-.63-.97-.63-1.15,0-1.77,1.07-2.56,4.91-.8,3.84-.62,4.82.53,4.82.97,0,1.59-.63,2.03-2.59l.18-.98h4.69c-.53,2.5-1.24,4.2-2.48,5.27-1.24,1.07-2.92,1.61-5.04,1.61-3.98,0-6.45-1.25-5.04-7.95,1.5-7.41,4.77-8.48,8.66-8.48,4.6,0,5.3,2.68,4.51,6.52h-4.69Z"/>
        <path class="cls-1" d="M96.19,17.95l-.44,2.05c-.35,1.7.27,2.14.97,2.14.97,0,1.59-.54,2.03-2.68h4.69c-.8,3.84-3.01,5.89-7.25,5.89-3.71,0-5.39-1.25-5.39-4.46,0-1.07.18-2.32.44-3.75,1.24-5.98,3.62-8.21,8.31-8.21,4.16,0,5.84,1.87,4.69,7.5l-.35,1.61h-7.69v-.09ZM99.73,14.38c.35-1.61.18-2.41-.97-2.41-1.06,0-1.59.71-1.86,2.41l-.18.71h2.83l.18-.71Z"/>
        <path class="cls-1" d="M106.27,9.2h1.68l.97-4.64h5.13l-.97,4.64h2.03l-.71,3.48h-2.03l-1.59,7.5c-.18.89.18,1.25.97,1.25h.8l-.71,3.48c-.97.09-1.95.18-2.83.18-3.18,0-4.24-.54-3.54-4.02l1.68-8.3h-1.68l.8-3.57Z"/>
        <path class="cls-1" d="M130.14,13.66h6.9l-2.3,11.25h-3.62l.27-1.79h-.09c-1.06,1.79-3.09,2.23-4.86,2.23-5.48,0-5.04-3.84-3.71-10.71,1.41-6.88,3.54-10.71,9.81-10.71,3.8,0,6.01,1.96,5.04,6.96h-5.13c.18-1.07.27-1.87.18-2.41-.09-.62-.44-.89-1.06-.89-1.77,0-2.21,1.52-3.36,7.05-1.15,5.62-1.33,7.05.35,7.05,1.15,0,1.95-.71,2.65-4.38h-1.86l.8-3.66Z"/>
        <path class="cls-1" d="M139.96,9.2h4.95l-.53,2.5h.09c.97-1.87,2.56-2.86,4.07-2.86h.8l-.97,4.82c-.35-.09-.8-.09-1.24-.09-1.86,0-3.01.71-3.45,2.77l-1.77,8.57h-5.13l3.18-15.71Z"/>
        <path class="cls-1" d="M153.13,25.27c-6.1,0-5.84-3.75-4.86-8.21.8-4.11,2.48-8.21,8.31-8.21s5.84,3.75,4.86,8.21c-.8,4.11-2.48,8.21-8.31,8.21ZM153.84,21.88c1.15,0,1.59-.89,2.48-4.82.8-3.93.8-4.91-.44-4.91-1.15,0-1.68.89-2.48,4.91-.8,3.93-.71,4.82.44,4.82Z"/>
        <path class="cls-1" d="M164.8,9.2h5.13l-2.12,10.36c-.35,1.34-.09,1.88.88,1.88.88,0,1.33-.54,1.68-1.88l2.12-10.36h5.13l-3.18,15.63h-4.95l.35-1.88h-.09c-.97,1.52-2.39,2.32-4.24,2.32-2.3,0-3.89-.89-3.18-4.29l2.48-11.79Z"/>
        <path class="cls-1" d="M179.92,9.2h4.95l-.44,2.14h.09c.97-1.7,2.3-2.59,4.07-2.59,3.45,0,4.07,2.77,2.83,8.57-1.24,5.98-3.54,7.95-6.37,7.95-1.5,0-2.65-.54-2.83-2.14h-.09l-1.41,6.88h-5.13l4.33-20.8ZM183.99,21.43c1.24,0,1.68-.98,2.39-4.38.71-3.39.62-4.38-.53-4.38s-1.59.98-2.3,4.38c-.71,3.39-.71,4.38.44,4.38Z"/>
      </g>
    </g>
  </g>
</svg>