<?xml version="1.0" encoding="UTF-8"?>
<svg id="Layer_2" data-name="Layer 2" xmlns="http://www.w3.org/2000/svg" viewBox="0 0 120 30">
  <defs>
    <style>
      .cls-1 {
        fill: #fff;
      }
    </style>
  </defs>
  <g id="Layer_1-2" data-name="Layer 1">
    <g id="Layer_2-2" data-name="Layer 2">
      <g id="uuid-fe441049-1892-4035-bb45-a63d01b5ee3d" data-name="Layer 1-2">
        <path class="cls-1" d="M57.62.4h2.57l-4.52,11.51h-.75l-3.16-7.09-3.16,7.09h-.75L43.31.4h2.57l2.52,6.67L51.37.19h.77l2.97,6.85,2.52-6.65Z"/>
        <path class="cls-1" d="M61.07,11.7V.4h2.32v4.33h5V.4h2.31v11.31h-2.31v-4.88h-5v4.88h-2.32Z"/>
        <path class="cls-1" d="M79.73,11.7l-.64-1.47h-4.61l-.63,1.47h-2.49L76.41.19h.77l5.04,11.51h-2.49ZM78.29,8.32l-1.51-3.82-1.51,3.82h3.01Z"/>
        <path class="cls-1" d="M82.9,11.7V.4h2.32v9.22h4.95v2.09h-7.27Z"/>
        <path class="cls-1" d="M91.03,11.7V.4h7.61v2.09h-5.3v2.3h3.89v1.98h-3.89v2.86h5.5v2.09h-7.82Z"/>
        <path class="cls-1" d="M99.2,9.41l1.6-1.2c.8,1.1,1.72,1.65,2.77,1.64.42.03.84-.09,1.19-.32.29-.22.45-.56.44-.92.02-.28-.09-.55-.29-.74-.35-.27-.74-.49-1.15-.66l-1.23-.55c-1.83-.82-2.74-1.91-2.74-3.26-.03-.9.36-1.76,1.06-2.32.76-.61,1.72-.92,2.69-.89.78-.02,1.55.18,2.23.57.63.38,1.15.92,1.51,1.57l-1.58,1.23c-.58-.87-1.3-1.3-2.15-1.3-.36,0-.72.1-1.01.31-.26.18-.41.47-.41.78,0,.26.09.51.28.69.31.26.66.46,1.04.61l1.3.57c.8.32,1.52.8,2.13,1.41.45.53.69,1.2.67,1.89.03.95-.38,1.86-1.12,2.46-.81.64-1.82.97-2.85.92-.9.01-1.78-.22-2.56-.67-.76-.44-1.38-1.08-1.81-1.84Z"/>
        <path class="cls-1" d="M24.85,18.41c-2.79,1.13-5.91,1.13-8.7,0-2.4-.95-5.07-.94-7.46.04-2.75,1.1-5.81,1.09-8.55-.03l-.14-.05c.46,1.26,1.07,2.46,1.81,3.58,2.06.6,4.25.49,6.24-.31,2.83-1.15,5.99-1.15,8.82,0,2.33.94,4.94.94,7.27,0,2.39-.98,5.03-1.12,7.51-.42.48-.82.89-1.67,1.23-2.56-.43-.14-.86-.31-1.3-.44-2.19-.74-4.57-.67-6.72.19Z"/>
        <path class="cls-1" d="M13.82,25.3c1.06.16,2.09.43,3.1.8,2.36.89,4.97.86,7.32-.07,1.33-.53,2.75-.8,4.18-.82.9-.84,1.71-1.76,2.42-2.77-2.08-.49-4.26-.32-6.23.49-2.69,1.06-5.69,1.05-8.37-.04-2.43-.98-5.14-.98-7.57,0-1.77.71-3.7.96-5.6.73.94,1.12,2.01,2.12,3.2,2.97.52-.1,1.04-.25,1.54-.45,1.96-.75,3.95-1.13,6.01-.85Z"/>
        <path class="cls-1" d="M24.85,27.3c-2.78,1.12-5.89,1.12-8.67,0-2.33-.94-4.93-.96-7.26-.03-.34.13-.68.25-1.02.35,5.8,3.26,12.95,2.96,18.46-.77-.51.12-1.02.27-1.51.46Z"/>
        <path class="cls-1" d="M.22.06c.58.28,1.15.59,1.74.83,1.74.68,3.57,1.13,5.43,1.35,1.44.19,2.89.33,4.31.59,1.29.21,2.5.74,3.53,1.54.48.36.88.83,1.16,1.36.03.05.06.09.09.13.3-.41.61-.8.95-1.17.89-.87,2.01-1.33,3.18-1.68,1.29-.34,2.61-.55,3.94-.64,2.4-.24,4.75-.67,6.97-1.65.44-.2.86-.44,1.37-.71-.21.75-.38,1.44-.62,2.11-.83,2.64-2.36,5-4.42,6.84-1,.88-2.14,1.59-3.36,2.12-1.84.74-3.38,2.07-4.4,3.78-.38.66-.61,1.39-.67,2.15-.02.21-.1.29-.31.25-.65-.12-1.29-.27-1.93-.46-1.11-.44-2.28-.69-3.47-.74-.14-.01-.26-.08-.33-.2-.66-1.88-2-3.18-3.64-4.17-.72-.43-1.52-.73-2.25-1.13-2.54-1.37-4.37-3.43-5.69-5.97C1.07,3.2.55,1.74.24.24c-.01-.06-.02-.12-.02-.18Z"/>
        <path class="cls-1" d="M44.56,29.74v-14.58h2.98v5.59h6.46v-5.59h2.98v14.58h-2.98v-6.3h-6.46v6.3h-2.98Z"/>
        <path class="cls-1" d="M59.22,29.74v-14.58h9.81v2.69h-6.83v2.96h5.02v2.55h-5.02v3.69h7.09v2.69h-10.08Z"/>
        <path class="cls-1" d="M80.19,29.74l-.82-1.9h-5.97l-.82,1.9h-3.21l6.52-14.85h.99l6.5,14.85h-3.21ZM78.35,25.39l-1.94-4.92-1.94,4.92h3.89Z"/>
        <path class="cls-1" d="M91.77,15.16h3.36l-6.5,14.84h-.99l-6.52-14.84h3.38l3.64,8.82,3.62-8.82Z"/>
        <path class="cls-1" d="M96.02,29.74v-14.58h9.81v2.69h-6.83v2.96h5.02v2.55h-5.02v3.69h7.1v2.69h-10.08Z"/>
        <path class="cls-1" d="M117.02,15.16h2.98v14.84h-1l-8.44-9.01v8.75h-2.98v-14.85h.97l8.47,8.97v-8.7Z"/>
      </g>
    </g>
  </g>
</svg>